PathFileType	4	(X/Y/Z)	c:/Users/goper/Files/vsCode/490R/osim_files/C04/C04_Static.trc
DataRate	CameraRate	NumFrames	NumMarkers	Units                	OrigDataRate	OrigDataStartFrame	OrigNumFrames
250.00	250.00	9	36	mm	250.0	1084	1445
                Frame#	Time	LPSIS			LASIS			LTH1			LTH2			LTH3			LTH4			LLFE			LMFE			LSH1			LSH2			LSH3			LSH4			LLMAL			LMMAL			LCAL			LMTP5			LTOE			LMTP1			RPSIS			RASIS			RTH1			RTH2			RTH3			RTH4			RLFE			RMFE			RSH1			RSH2			RSH3			RSH4			RLMAL			RMMAL			RCAL			RMTP1			RTOE			RMTP5		
		X1	Y1	Z1	X2	Y2	Z2	X3	Y3	Z3	X4	Y4	Z4	X5	Y5	Z5	X6	Y6	Z6	X7	Y7	Z7	X8	Y8	Z8	X9	Y9	Z9	X10	Y10	Z10	X11	Y11	Z11	X12	Y12	Z12	X13	Y13	Z13	X14	Y14	Z14	X15	Y15	Z15	X16	Y16	Z16	X17	Y17	Z17	X18	Y18	Z18	X19	Y19	Z19	X20	Y20	Z20	X21	Y21	Z21	X22	Y22	Z22	X23	Y23	Z23	X24	Y24	Z24	X25	Y25	Z25	X26	Y26	Z26	X27	Y27	Z27	X28	Y28	Z28	X29	Y29	Z29	X30	Y30	Z30	X31	Y31	Z31	X32	Y32	Z32	X33	Y33	Z33	X34	Y34	Z34	X35	Y35	Z35	X36	Y36	Z36

1084	4.33200	-350.21582	977.01086	417.27097	-185.28455	962.90533	339.02991	-320.97906	730.55072	277.54239	-317.12582	668.69781	281.26508	-256.25076	740.01935	264.22598	-242.64061	678.61218	267.27493	-295.34534	463.06570	280.09018	-279.83041	436.87943	393.23550	-359.95346	364.33618	268.48846	-368.93051	317.21982	267.48572	-308.61746	361.54224	258.08090	-309.40616	314.33124	255.23714	-347.77853	77.09082	252.42293	-324.08841	91.07726	343.69086	-404.76413	48.37387	312.90903	-220.33940	21.46393	210.47888	-186.39908	47.45574	258.17838	-205.97292	21.40989	317.36926	-348.91974	979.60559	491.97250	-179.74681	958.07654	552.11353	-305.95844	747.62433	634.70496	-309.00583	684.46069	630.92786	-241.73898	750.86835	637.31750	-231.29962	689.38733	635.25409	-278.82510	465.60120	620.28235	-280.78604	448.14911	508.46921	-358.38977	339.83728	645.99054	-352.80035	294.53513	647.85956	-296.82211	340.02658	648.72455	-300.36642	293.07468	652.39276	-336.41385	80.46087	648.37701	-314.11737	87.62398	558.94745	-392.10358	48.21601	594.77295	-190.13451	31.22673	586.29504	-166.77751	47.18768	635.59625	-209.17114	17.84549	690.80420
1085	4.33600	-350.25146	977.01111	417.26855	-185.26381	962.91052	339.03104	-321.00644	730.51770	277.59479	-317.20618	668.77411	281.46274	-256.22879	740.03394	264.22568	-242.61200	678.61151	267.28497	-295.33401	463.04440	280.08768	-279.83041	436.87598	393.22067	-359.96222	364.35770	268.50052	-368.93698	317.21582	267.50519	-308.61737	361.54630	258.08472	-309.42093	314.34732	255.24677	-347.79697	77.09242	252.43375	-324.10010	91.06336	343.70126	-404.79861	48.38684	312.87265	-220.32973	21.47366	210.49911	-186.41829	47.45959	258.18423	-205.97025	21.41250	317.37851	-348.95062	979.56580	491.96246	-179.74092	958.06244	552.11450	-305.94632	747.63562	634.68866	-309.02386	684.44379	630.90869	-241.80568	750.85437	637.33551	-231.35216	689.36023	635.26447	-278.85800	465.59009	620.25177	-280.76544	448.16769	508.46155	-358.41089	339.81744	645.97552	-352.84116	294.53278	647.84161	-296.81161	340.04062	648.73877	-300.39792	293.04749	652.38531	-336.44110	80.43470	648.38757	-314.09064	87.64992	558.94977	-392.12766	48.19595	594.80688	-190.16302	31.20203	586.32507	-166.77077	47.18747	635.59332	-209.17540	17.82831	690.82593
1086	4.34000	-350.19562	977.01337	417.23645	-185.25754	962.94434	339.03174	-320.97260	730.56372	277.52826	-317.36594	668.61200	281.77304	-256.20309	740.05865	264.21652	-242.59183	678.61859	267.27271	-295.34677	463.06598	280.10516	-279.80389	436.90137	393.22455	-359.96579	364.35284	268.51562	-368.93716	317.23618	267.50110	-308.61032	361.55869	258.07919	-309.40521	314.33801	255.24509	-347.80087	77.11137	252.46677	-324.09885	91.08861	343.70288	-404.75201	48.40609	312.92325	-220.34579	21.47980	210.50107	-186.43159	47.45378	258.19800	-205.98787	21.42395	317.37985	-348.89822	979.58319	491.91516	-179.74168	958.08002	552.10272	-305.98605	747.62799	634.68085	-309.03058	684.47742	630.89246	-241.80032	750.88147	637.29114	-231.34097	689.36383	635.23859	-278.88864	465.59439	620.23029	-280.73981	448.16568	508.45825	-358.43326	339.85397	645.95172	-352.90253	294.50247	647.81818	-296.81317	340.04678	648.71851	-300.41040	293.05554	652.37152	-336.46323	80.42899	648.38531	-314.08383	87.67090	558.95868	-392.15796	48.23315	594.82886	-190.16481	31.23281	586.32159	-166.78209	47.19270	635.59369	-209.20569	17.82134	690.82056
1087	4.34400	-350.18436	977.01764	417.20822	-185.25343	962.94507	339.01382	-320.96362	730.55872	277.52786	-317.13217	668.85107	281.41043	-256.20987	740.03387	264.20834	-242.57884	678.61975	267.24719	-295.34421	463.05933	280.11691	-279.76971	436.90707	393.21417	-359.92453	364.36902	268.49411	-368.93112	317.26129	267.50903	-308.59305	361.55118	258.08340	-309.37796	314.35269	255.24020	-347.81573	77.09223	252.48119	-324.08365	91.10082	343.69626	-404.76566	48.44764	312.92133	-220.33029	21.49688	210.51479	-186.43762	47.46319	258.19180	-205.97005	21.44647	317.35413	-348.86755	979.57001	491.87692	-179.76221	958.06586	552.09076	-305.95944	747.69421	634.66803	-309.04785	684.47900	630.84088	-241.78192	750.88055	637.29706	-231.33244	689.37036	635.22437	-278.84860	465.62064	620.24786	-280.73413	448.14151	508.44083	-358.40298	339.87479	645.95282	-352.96799	294.51660	647.72186	-296.81763	340.00586	648.71393	-300.42831	293.06522	652.36993	-336.41937	80.46918	648.36121	-314.07224	87.65422	558.95209	-392.11252	48.27090	594.79120	-190.16733	31.25346	586.31909	-166.76878	47.22385	635.59393	-209.19077	17.84550	690.80042
1088	4.34800	-350.18634	977.02362	417.19885	-185.25751	962.94110	338.99585	-320.94904	730.57501	277.48984	-317.08679	668.87616	281.35254	-256.17471	740.05255	264.17838	-242.58199	678.61823	267.22485	-295.34088	463.04089	280.11450	-279.77274	436.89615	393.18768	-359.90857	364.40863	268.45654	-368.90002	317.25104	267.49237	-308.57687	361.56030	258.07233	-309.37317	314.34012	255.24471	-347.80841	77.08836	252.45110	-324.06226	91.09616	343.66684	-404.74875	48.45221	312.94940	-220.31563	21.49246	210.51741	-186.42018	47.47573	258.17700	-205.96991	21.45522	317.32394	-348.89743	979.54065	491.87714	-179.71729	958.06799	552.05939	-305.92004	747.71558	634.64154	-309.00562	684.49963	630.82697	-241.74722	750.87708	637.26044	-231.29890	689.37054	635.19385	-278.84125	465.62714	620.22308	-280.73544	448.14334	508.43323	-358.43158	339.88132	645.91394	-352.94196	294.55560	647.73370	-296.80698	340.04428	648.70673	-300.36362	293.10013	652.36194	-336.41199	80.48621	648.36182	-314.08667	87.64220	558.94946	-392.11639	48.30821	594.79352	-190.16068	31.25632	586.31006	-166.78131	47.23465	635.56873	-209.17261	17.86401	690.79175
1089	4.35200	-350.24280	977.00000	417.21161	-185.24405	962.94043	338.97308	-320.95972	730.59924	277.44061	-317.09839	668.86902	281.34561	-256.17853	740.03027	264.16663	-242.57288	678.59149	267.21103	-295.33487	463.02924	280.09814	-279.77765	436.86703	393.18011	-359.91605	364.38107	268.44611	-368.88458	317.25827	267.47647	-308.60101	361.52203	258.05688	-309.36978	314.31775	255.24919	-347.79675	77.06440	252.45502	-324.04385	91.09711	343.65881	-404.74823	48.44648	312.93335	-220.34137	21.47928	210.51846	-186.41446	47.49081	258.17557	-205.93307	21.50217	317.29755	-348.87759	979.55774	491.85663	-179.72206	958.06537	552.02863	-305.93073	747.71295	634.60004	-308.97574	684.52795	630.79358	-241.76837	750.89630	637.25739	-231.26366	689.39282	635.15417	-278.82880	465.64819	620.19452	-280.73428	448.10709	508.42487	-358.40009	339.90558	645.90387	-352.85602	294.64969	647.73926	-296.76364	340.06604	648.66895	-300.35504	293.13654	652.36243	-336.39835	80.48759	648.35724	-314.09000	87.62914	558.95599	-392.08774	48.34451	594.74933	-190.13635	31.26958	586.29340	-166.73877	47.26454	635.54614	-209.15213	17.90996	690.76691
1090	4.35600	-350.21863	977.02094	417.20731	-185.25975	962.93341	338.96503	-320.94547	730.56775	277.43604	-317.32425	668.60901	281.64557	-256.16660	740.01733	264.12982	-242.55714	678.59033	267.19843	-295.30646	463.03830	280.06082	-279.77866	436.85153	393.16125	-359.90088	364.36441	268.43176	-368.92938	317.21783	267.47232	-308.59177	361.51712	258.04248	-309.37317	314.30252	255.21875	-347.77206	77.04974	252.44136	-324.04352	91.09977	343.62000	-404.77185	48.43778	312.93320	-220.34196	21.46704	210.51532	-186.39149	47.49699	258.14166	-205.91110	21.50520	317.26633	-348.85376	979.56708	491.84552	-179.69487	958.07794	551.98688	-305.91165	747.74548	634.54028	-308.97574	684.52124	630.74377	-241.68993	750.93616	637.22534	-231.22366	689.40601	635.12115	-278.81131	465.65323	620.14709	-280.71979	448.10706	508.39517	-358.39401	339.92871	645.86035	-352.82373	294.74982	647.70874	-296.73306	340.10214	648.63507	-300.31958	293.13165	652.33936	-336.35837	80.53142	648.32904	-314.06006	87.63435	558.94678	-392.04654	48.39143	594.67560	-190.13622	31.27054	586.26874	-166.72653	47.26723	635.53339	-209.12350	17.92814	690.73981
1091	4.36000	-350.20425	977.00183	417.16870	-185.26459	962.92889	338.94351	-320.93094	730.55225	277.39560	-317.25516	668.63373	281.54865	-256.14587	740.00641	264.10791	-242.55212	678.58447	267.17392	-295.28687	463.03195	280.02991	-279.77905	436.86090	393.17462	-359.87305	364.37704	268.42090	-368.88589	317.22632	267.43533	-308.58154	361.50620	258.03180	-309.34952	314.30969	255.21884	-347.80386	77.01956	252.46236	-324.02707	91.09026	343.62320	-404.74072	48.43990	312.92502	-220.32123	21.45118	210.52402	-186.39684	47.48718	258.14999	-205.88589	21.51416	317.26331	-348.88013	979.55750	491.85614	-179.68509	958.06805	551.96246	-305.86914	747.79041	634.53870	-308.97598	684.53925	630.73181	-241.63690	750.97205	637.21704	-231.21066	689.40051	635.10095	-278.82498	465.66336	620.14343	-280.71982	448.09100	508.40485	-358.42038	339.93091	645.82385	-352.82147	294.73944	647.72809	-296.74103	340.08679	648.61584	-300.31812	293.15723	652.31580	-336.33170	80.55352	648.33569	-314.06213	87.62279	558.95001	-392.04721	48.40411	594.65887	-190.13297	31.26528	586.26813	-166.72914	47.26113	635.52875	-209.15047	17.91953	690.73517
1092	4.36400	-350.22003	977.03088	417.20911	-185.28017	962.91528	338.93710	-320.91058	730.54651	277.37784	-317.07938	668.81134	281.24185	-256.15564	740.00037	264.08737	-242.56790	678.56567	267.15271	-295.26956	463.02914	280.02127	-279.77618	436.84622	393.16513	-359.86661	364.38165	268.40662	-368.88690	317.22891	267.41745	-308.57013	361.50323	258.04645	-309.38062	314.25385	255.23178	-347.80487	77.04471	252.43231	-324.04089	91.08182	343.61633	-404.75412	48.42678	312.93439	-220.33238	21.44691	210.51639	-186.42012	47.47665	258.15738	-205.90593	21.51368	317.28320	-348.83765	979.54858	491.83362	-179.68057	958.06439	551.94385	-305.86069	747.79547	634.52808	-308.92871	684.56293	630.75037	-241.64522	750.96283	637.21039	-231.18242	689.41034	635.08655	-278.78848	465.68463	620.15411	-280.73822	448.07117	508.40060	-358.41043	339.96790	645.85681	-352.85062	294.71060	647.70691	-296.73340	340.10184	648.62122	-300.34158	293.11871	652.28015	-336.35309	80.54336	648.34772	-314.08963	87.60522	558.94257	-392.05441	48.37197	594.64673	-190.12933	31.26000	586.26227	-166.72610	47.23903	635.53363	-209.15268	17.92330	690.74982
